<svg width="200" height="200" viewBox="0 0 200 200" fill="none" xmlns="http://www.w3.org/2000/svg">
<path d="M185.06 120.319L170.319 110.358V80.478L185.06 70.717C185.856 70.1194 186.454 69.3226 186.454 68.3266C186.454 67.3306 185.856 66.3346 185.06 65.9361L109.163 14.9401C108.167 14.3425 106.773 14.3425 105.777 14.9401L12.1513 77.4899C11.7529 77.6891 11.5537 77.8883 11.3545 78.2867C11.3545 78.2867 11.3545 78.2868 11.3545 78.486C10.9561 79.0836 10.9561 79.482 10.9561 80.0796V134.86C10.9561 135.856 11.5537 136.852 12.3505 137.251L88.2469 187.849C88.8445 188.247 89.2429 188.446 89.8405 188.446C90.4381 188.446 91.0357 188.247 91.4341 187.849L185.259 125.299C186.056 124.701 186.653 123.904 186.653 122.908C186.454 121.713 185.856 120.717 185.06 120.319ZM107.57 21.1154L178.088 68.1274L166.534 75.6971C165.936 75.8963 165.339 76.2947 164.94 76.6931L89.6413 126.892L33.0676 89.2429C32.8684 89.0437 32.6692 89.0437 32.6692 88.8445L19.1234 79.8804L107.57 21.1154ZM34.0636 97.2111L87.8485 133.068C88.8445 133.665 90.2389 133.665 91.2349 133.068L164.342 84.2628V108.765L90.0397 157.769L34.0636 121.912V97.2111ZM89.6413 181.673L16.7329 133.068V85.6573L28.2867 93.227V123.506C28.2867 124.502 28.8843 125.498 29.6812 126.096L88.6453 163.944C89.0437 164.343 89.6413 164.343 90.2389 164.343C90.8365 164.343 91.4341 164.143 91.8325 163.944L166.335 114.94L178.088 122.908L89.6413 181.673Z" fill="white"/>
<path d="M94.6216 48.4061L130.08 72.7089C130.677 73.1073 131.275 73.3065 131.673 73.3065C132.669 73.3065 133.466 72.9081 134.064 71.9121C135.06 70.5176 134.661 68.7248 133.267 67.7288L98.008 43.426C96.6136 42.43 94.8208 42.8284 93.8248 44.2228C92.8287 45.6172 93.2272 47.4101 94.6216 48.4061Z" fill="white"/>
</svg>
