<svg width="200" height="200" viewBox="0 0 200 200" fill="none" xmlns="http://www.w3.org/2000/svg">
<path d="M183.267 89.3466C183.266 85.7746 182.468 82.2478 180.929 79.0239C179.391 75.8001 177.152 72.9606 174.376 70.713C174.619 69.6004 174.745 68.4656 174.752 67.3268C174.729 63.0046 173.162 58.8329 170.333 55.5648C167.504 52.2967 163.601 50.1474 159.326 49.5051C159.848 46.8676 159.684 44.1405 158.851 41.5843C158.03 39.1751 156.676 36.9822 154.891 35.1684C152.087 31.8723 148.296 29.567 144.079 28.5942C143.71 28.4363 143.312 28.3554 142.91 28.3565H142.316C141.124 28.2927 139.928 28.3658 138.752 28.5744C137.916 24.1846 135.569 20.2263 132.118 17.3862C130.045 15.6744 127.629 14.425 125.034 13.7215C122.439 13.018 119.723 12.8767 117.069 13.307C112.546 14.0979 108.45 16.4649 105.507 19.9882C102.564 23.5116 100.963 27.9636 100.99 32.5546V161.98C100.891 165.203 101.443 168.413 102.61 171.419C103.778 174.425 105.539 177.165 107.787 179.476C110.035 181.787 112.726 183.622 115.698 184.873C118.671 186.123 121.864 186.762 125.089 186.753C129.393 186.766 133.622 185.626 137.337 183.454C141.052 181.281 144.118 178.154 146.217 174.396C147.13 174.596 148.057 174.729 148.99 174.792C154.722 175.167 160.368 173.249 164.687 169.462C169.006 165.674 171.643 160.326 172.019 154.594C172.176 152.164 171.908 149.725 171.227 147.386C174.429 145.127 177.122 142.221 179.131 138.857C181.141 135.493 182.423 131.745 182.895 127.855C183.367 123.964 183.019 120.018 181.872 116.271C180.725 112.524 178.806 109.059 176.237 106.099C180.696 101.659 183.222 95.6388 183.267 89.3466ZM177.208 124.357C177.214 127.712 176.456 131.026 174.991 134.045C173.526 137.064 171.392 139.71 168.752 141.782C166.908 138.565 164.251 135.888 161.046 134.022C157.842 132.156 154.203 131.165 150.495 131.149C149.707 131.149 148.951 131.462 148.394 132.019C147.837 132.576 147.524 133.331 147.524 134.119C147.524 134.907 147.837 135.662 148.394 136.219C148.951 136.776 149.707 137.089 150.495 137.089C153.621 137.186 156.649 138.206 159.197 140.02C161.745 141.835 163.699 144.364 164.811 147.287C165.728 149.47 166.134 151.834 166 154.198C165.695 158.345 163.771 162.206 160.644 164.948C157.518 167.689 153.438 169.091 149.287 168.852C147.984 168.75 146.7 168.484 145.465 168.06C144.757 167.827 143.987 167.868 143.309 168.176C142.63 168.485 142.092 169.037 141.802 169.723C140.184 173.527 137.322 176.669 133.684 178.634C130.047 180.598 125.85 181.268 121.782 180.535C117.539 179.644 113.737 177.306 111.028 173.922C108.318 170.537 106.87 166.315 106.93 161.98V32.5546C106.883 29.3712 107.964 26.2739 109.983 23.8124C112.003 21.3509 114.829 19.6845 117.96 19.109C118.661 19.0025 119.37 18.9496 120.079 18.9506C123.091 18.9406 126.012 19.9844 128.336 21.9011C129.72 23.0405 130.856 24.4499 131.677 26.0432C132.497 27.6366 132.984 29.3805 133.109 31.1684C130.558 32.7955 128.456 35.0368 126.996 37.6869C125.536 40.337 124.764 43.3111 124.752 46.3367C124.752 47.1245 125.065 47.88 125.622 48.4371C126.179 48.9941 126.935 49.307 127.722 49.307C128.51 49.307 129.266 48.9941 129.823 48.4371C130.38 47.88 130.693 47.1245 130.693 46.3367C130.699 43.2193 131.903 40.2234 134.055 37.9681C136.207 35.7127 139.143 34.3702 142.257 34.2179C144.534 34.4357 147.168 35.6437 150.534 39.1684C151.704 40.3352 152.597 41.7494 153.148 43.307C153.861 45.5754 153.784 48.0186 152.93 50.2377C152.82 50.5627 152.766 50.9044 152.772 51.2476C152.772 51.2476 152.772 51.406 152.772 51.4654C152.654 51.9217 152.647 52.3993 152.751 52.8588C152.854 53.3184 153.066 53.7467 153.368 54.1085C153.669 54.4702 154.053 54.755 154.486 54.9393C154.92 55.1236 155.391 55.2021 155.861 55.1684H156.613C158.213 55.1632 159.799 55.4738 161.278 56.0825C162.758 56.6912 164.103 57.586 165.236 58.7155C166.37 59.845 167.269 61.1871 167.882 62.6648C168.496 64.1426 168.811 65.7268 168.811 67.3268C168.794 68.5736 168.58 69.8099 168.178 70.9902C167.982 71.6022 167.99 72.2611 168.201 72.868C168.412 73.475 168.814 73.9972 169.346 74.3565C171.661 75.8952 173.586 77.9505 174.971 80.3605C176.355 82.7705 177.161 85.4691 177.324 88.2437C177.487 91.0182 177.003 93.7927 175.911 96.3484C174.819 98.9041 173.148 101.171 171.029 102.97C170.875 103.107 170.736 103.26 170.613 103.426C167.561 105.636 163.887 106.821 160.118 106.812C155.33 106.807 150.74 104.902 147.354 101.517C143.969 98.1311 142.064 93.5406 142.059 88.7526C142.059 87.9648 141.746 87.2093 141.189 86.6523C140.632 86.0952 139.876 85.7823 139.089 85.7823C138.301 85.7823 137.545 86.0952 136.988 86.6523C136.431 87.2093 136.118 87.9648 136.118 88.7526C136.139 95.1043 138.673 101.19 143.166 105.679C147.66 110.169 153.747 112.697 160.099 112.713C164.126 112.729 168.092 111.72 171.623 109.782C175.202 113.796 177.188 118.98 177.208 124.357Z" fill="white"/>
<path d="M77.0101 13.2474C74.3558 12.817 71.6401 12.9583 69.0448 13.6618C66.4495 14.3653 64.0343 15.6147 61.9606 17.3266C58.5104 20.1666 56.1634 24.1249 55.3269 28.5147C54.2424 28.3214 53.1408 28.2418 52.0398 28.2771H51.6833C51.4531 28.2498 51.2205 28.2498 50.9903 28.2771C47.5645 28.6533 43.6041 30.3761 39.1091 34.9899C37.3229 36.8032 35.9692 38.9964 35.1487 41.4058C34.3148 43.9618 34.1512 46.6891 34.6734 49.3266C30.3991 49.9689 26.4953 52.1182 23.6665 55.3863C20.8378 58.6544 19.2706 62.8261 19.2477 67.1483C19.2484 68.2864 19.3678 69.4212 19.6041 70.5345C16.9866 72.6445 14.8445 75.2838 13.3182 78.2795C11.7919 81.2752 10.9159 84.5596 10.7477 87.9175C10.5794 91.2754 11.1226 94.6309 12.3418 97.7642C13.5609 100.897 15.4285 103.738 17.822 106.099C15.2619 109.065 13.3518 112.534 12.2147 116.283C11.0776 120.032 10.7388 123.978 11.2202 127.866C11.7015 131.754 12.9923 135.498 15.0094 138.857C17.0264 142.216 19.7249 145.114 22.9309 147.366C22.2503 149.705 21.9823 152.144 22.1388 154.574C22.5151 160.306 25.1526 165.654 29.4714 169.442C33.7901 173.229 39.4363 175.147 45.1685 174.772C46.1011 174.709 47.0277 174.576 47.9408 174.376C50.0397 178.134 53.1059 181.261 56.8212 183.434C60.5365 185.606 64.7655 186.745 69.0695 186.732C72.284 186.729 75.465 186.08 78.4245 184.825C81.3839 183.57 84.0617 181.735 86.2993 179.427C88.537 177.119 90.289 174.386 91.4519 171.389C92.6148 168.393 93.1648 165.193 93.0695 161.98V32.5543C93.1109 27.956 91.5197 23.4921 88.5791 19.9568C85.6384 16.4215 81.539 14.044 77.0101 13.2474ZM87.1289 161.98C87.1846 166.329 85.7221 170.561 82.9932 173.948C80.2643 177.335 76.4398 179.664 72.1784 180.534C68.1103 181.264 63.9149 180.592 60.2783 178.628C56.6417 176.664 53.7791 173.525 52.1586 169.723C51.9381 169.196 51.5706 168.744 51.1 168.421C50.6294 168.098 50.0757 167.917 49.5051 167.901C49.1961 167.899 48.8887 167.945 48.5942 168.039C47.3589 168.464 46.0747 168.73 44.7725 168.832C40.6134 169.103 36.5167 167.712 33.3828 164.964C30.2489 162.217 28.3342 158.337 28.0596 154.178C27.9278 151.821 28.3341 149.464 29.2477 147.287C30.4665 144.333 32.517 141.797 35.15 139.987C37.7829 138.176 40.8851 137.17 44.0794 137.089C44.8672 137.089 45.6227 136.776 46.1797 136.219C46.7367 135.662 47.0497 134.906 47.0497 134.119C47.0497 133.331 46.7367 132.575 46.1797 132.018C45.6227 131.461 44.8672 131.148 44.0794 131.148C40.3253 131.213 36.6482 132.223 33.3879 134.085C30.1276 135.948 27.3892 138.601 25.4259 141.802C23.0297 139.934 21.0455 137.591 19.5979 134.92C18.1503 132.249 17.2705 129.308 17.0139 126.28C16.7573 123.253 17.1294 120.205 18.1067 117.329C19.084 114.452 20.6456 111.809 22.6932 109.564C26.3398 111.626 30.4629 112.696 34.6519 112.669C38.8408 112.642 42.9495 111.517 46.5689 109.408C50.1882 107.299 53.192 104.279 55.281 100.648C57.3699 97.0166 58.4713 92.9017 58.4754 88.7127C58.4754 87.9249 58.1625 87.1694 57.6054 86.6124C57.0484 86.0553 56.2929 85.7424 55.5051 85.7424C54.7174 85.7424 53.9618 86.0553 53.4048 86.6124C52.8478 87.1694 52.5348 87.9249 52.5348 88.7127C52.5383 92.0385 51.6234 95.3007 49.8908 98.1396C48.1583 100.979 45.6754 103.284 42.716 104.801C39.7566 106.319 36.4356 106.99 33.1192 106.74C29.8027 106.49 26.6197 105.33 23.921 103.386C23.6616 103.202 23.374 103.062 23.0695 102.97C20.9589 101.17 19.2944 98.9056 18.2068 96.3539C17.1191 93.8023 16.6379 91.0332 16.801 88.2642C16.9642 85.4952 17.7671 82.8017 19.1468 80.3954C20.5265 77.9891 22.4454 75.9355 24.7526 74.3959C25.2853 74.0366 25.687 73.5143 25.8977 72.9073C26.1083 72.3004 26.1165 71.6415 25.921 71.0295C25.5012 69.8388 25.2739 68.5888 25.2477 67.3266C25.2529 65.7249 25.5744 64.14 26.194 62.6629C26.8135 61.1859 27.7188 59.8458 28.8578 58.7197C29.9968 57.5936 31.3471 56.7036 32.831 56.1009C34.315 55.4982 35.9035 55.1947 37.5051 55.2077H38.0992C38.5688 55.2463 39.0408 55.171 39.4751 54.9883C39.9095 54.8056 40.2934 54.5209 40.5942 54.1582C40.8943 53.7974 41.1045 53.3706 41.2078 52.9128C41.311 52.455 41.3044 51.9793 41.1883 51.5246C41.1883 51.5246 41.1883 51.3662 41.1883 51.3068C41.1942 50.9635 41.1406 50.6218 41.0299 50.2969C40.1741 48.078 40.0973 45.6343 40.8121 43.3662C41.3947 41.7739 42.3366 40.3373 43.5645 39.1681C47.0101 35.5642 49.7031 34.3761 52.02 34.2176C55.1929 34.29 58.2117 35.6001 60.4317 37.8682C62.6517 40.1363 63.8968 43.1825 63.9012 46.3563C63.9012 47.144 64.2141 47.8995 64.7711 48.4566C65.3282 49.0136 66.0837 49.3266 66.8715 49.3266C67.6592 49.3266 68.4147 49.0136 68.9718 48.4566C69.5288 47.8995 69.8418 47.144 69.8418 46.3563C69.8393 43.2377 69.0301 40.1729 67.493 37.4595C65.9559 34.7461 63.743 32.4765 61.0695 30.8711C61.2273 29.1376 61.7268 27.4524 62.539 25.9128C63.3513 24.3732 64.4603 23.0097 65.8022 21.9008C67.2344 20.7255 68.9005 19.8686 70.6896 19.3872C72.4786 18.9058 74.3498 18.8109 76.1784 19.1087C79.2951 19.7008 82.1027 21.3743 84.106 23.8342C86.1094 26.294 87.18 29.3822 87.1289 32.5543V161.98Z" fill="white"/>
</svg>
