<svg width="200" height="200" viewBox="0 0 200 200" fill="none" xmlns="http://www.w3.org/2000/svg">
<path d="M185.58 43.8096L154.702 12.9312C153.538 11.7679 151.655 11.7679 150.491 12.9312L95.5534 67.8672L62.3881 35.2359C62.3623 35.2101 62.3286 35.1923 62.3008 35.1684C62.1916 35.0692 62.0745 34.9799 61.9494 34.8965C61.8899 34.8568 61.8343 34.8131 61.7727 34.7774C61.6258 34.694 61.469 34.6285 61.3062 34.5689C61.2645 34.555 61.2288 34.5292 61.1871 34.5153L16.268 20.4806C15.2159 20.1531 14.0586 20.4349 13.2745 21.2171C12.4904 22.0012 12.2065 23.1545 12.538 24.2106L26.5747 69.1278C26.6601 69.3997 26.7911 69.6498 26.9479 69.8841C26.9976 69.9595 27.0571 70.021 27.1127 70.0905C27.1861 70.1818 27.2457 70.2811 27.3291 70.3625L60.4606 102.96L12.9311 150.492C11.7678 151.655 11.7678 153.539 12.9311 154.702L43.8114 185.584C44.3693 186.142 45.1276 186.456 45.9177 186.456C46.7077 186.456 47.4641 186.142 48.0239 185.584L96.0437 137.564L134.896 175.323C135.393 175.802 136.016 176.034 136.653 176.103C141.159 180.282 146.972 182.595 153.153 182.595C159.649 182.595 165.757 180.066 170.348 175.472C179.704 166.116 179.809 150.98 170.7 141.471C170.555 140.977 170.297 140.52 169.92 140.157L130.954 102.652L185.582 48.022C186.743 46.8568 186.743 44.9729 185.58 43.8096ZM56.6174 39.3292L54.3921 46.8925L44.0179 49.9436C43.0472 50.2295 42.2869 50.9878 42.001 51.9605L38.9519 62.3327L31.3866 64.558L19.9186 27.8612L56.6174 39.3292ZM45.9157 179.268L19.2457 152.596L30.4655 141.376L43.7995 154.71C44.3812 155.292 45.1435 155.581 45.9057 155.581C46.668 155.581 47.4303 155.292 48.0119 154.71C49.1752 153.547 49.1752 151.663 48.0119 150.499L34.6779 137.165L45.604 126.239L58.938 139.573C59.5196 140.155 60.2819 140.445 61.0442 140.445C61.8065 140.445 62.5688 140.155 63.1504 139.573C64.3137 138.41 64.3137 136.526 63.1504 135.363L49.8164 122.029L64.7226 107.123L91.7737 133.414L45.9157 179.268ZM166.132 171.26C159.468 177.92 148.925 178.374 141.723 172.639L167.514 146.849C173.249 154.053 172.794 164.6 166.132 171.26ZM136.939 169.005L66.5827 100.628L35.1147 69.6677L42.1916 67.5873C43.1623 67.3014 43.9226 66.5431 44.2085 65.5704L47.2596 55.1982L57.6338 52.1471C58.6045 51.8612 59.3648 51.1029 59.6507 50.1302L61.7588 42.966L124.58 104.774L163.605 142.341L136.939 169.005ZM126.684 98.4995L99.7975 72.0439L115.081 56.7605L128.415 70.0945C128.997 70.6761 129.759 70.966 130.521 70.966C131.283 70.966 132.046 70.6761 132.627 70.0945C133.791 68.9332 133.791 67.0454 132.627 65.8841L119.293 52.5501L131.708 40.1352L145.042 53.4692C145.624 54.0508 146.386 54.3407 147.148 54.3407C147.911 54.3407 148.673 54.0508 149.255 53.4692C150.418 52.3079 150.418 50.4201 149.255 49.2588L135.921 35.9248L152.6 19.2459L179.266 45.9158L126.684 98.4995Z" fill="white"/>
</svg>
